<svg xmlns="http://www.w3.org/2000/svg" width="70" height="70" fill="none"><g clip-path="url(#a)"><path fill="#F5F5F5" d="M19.833 39.083h30.333v26.834H19.833V39.083Z"/><path fill="#CFD8DC" d="M46.666 39.083h3.5v26.834h-3.5V39.083Z"/><path fill="#F5F5F5" d="M12.833 39.083v26.834H10.5a7 7 0 0 1-7-7V39.083h9.333Z"/><path fill="#CFD8DC" d="M9.334 39.083v26.729c.385.067.775.102 1.166.105h2.334V39.083h-3.5Z"/><path fill="#F5F5F5" d="M66.5 39.083v19.834a7 7 0 0 1-7 7h-2.334V39.083H66.5ZM66.5 23.917v5.833h-9.334V16.917H59.5a7 7 0 0 1 7 7Z"/><path fill="#CFD8DC" d="M59.5 16.917h-2.334v.105A7 7 0 0 1 63 23.917v5.833h3.5v-5.833a7 7 0 0 0-7-7ZM63 58.917a7 7 0 0 1-5.834 6.895v.105H59.5a7 7 0 0 0 7-7V39.083H63v19.834Z"/><path fill="#F5F5F5" d="M12.833 16.917V29.75H3.5v-5.833a7 7 0 0 1 7-7h2.333Z"/><path fill="#CFD8DC" d="M10.5 16.917a7.01 7.01 0 0 0-1.166.105V29.75h3.5V16.917H10.5Z"/><path fill="#7F8E94" d="M66.5 29.75h-63a2.333 2.333 0 0 0-2.333 2.333v4.667A2.333 2.333 0 0 0 3.5 39.083h63a2.333 2.333 0 0 0 2.334-2.333v-4.667A2.333 2.333 0 0 0 66.5 29.75Z"/><path fill="#545C60" d="M66.5 29.75H63a2.34 2.34 0 0 1 2.333 2.333v4.667A2.34 2.34 0 0 1 63 39.083h3.5a2.34 2.34 0 0 0 2.333-2.333v-4.667A2.34 2.34 0 0 0 66.5 29.75Z"/><path fill="#1D89E4" d="M19.834 16.917V29.75h-7V16.917a2.34 2.34 0 0 1 2.333-2.334H17.5a2.34 2.34 0 0 1 2.334 2.334Z"/><path fill="#0377BC" d="M17.5 14.583h-2.333c-.197.003-.394.03-.583.084a2.333 2.333 0 0 1 1.75 2.25V29.75h3.5V16.917a2.34 2.34 0 0 0-2.334-2.334Z"/><path fill="#1D89E4" d="M19.834 39.083v26.834A2.34 2.34 0 0 1 17.5 68.25h-2.333a2.34 2.34 0 0 1-2.333-2.333V39.083h7Z"/><path fill="#0377BC" d="M16.334 39.083v26.834a2.333 2.333 0 0 1-1.75 2.249c.19.054.386.082.583.084H17.5a2.34 2.34 0 0 0 2.334-2.333V39.083h-3.5Z"/><path fill="#1D89E4" d="M57.166 16.917V29.75h-7V16.917a2.34 2.34 0 0 1 2.334-2.334h2.333a2.34 2.34 0 0 1 2.334 2.334Z"/><path fill="#0377BC" d="M54.833 14.583H52.5c-.197.003-.394.03-.584.084a2.333 2.333 0 0 1 1.75 2.25V29.75h3.5V16.917a2.34 2.34 0 0 0-2.333-2.334Z"/><path fill="#1D89E4" d="M57.166 39.083v26.834a2.34 2.34 0 0 1-2.333 2.333H52.5a2.34 2.34 0 0 1-2.334-2.333V39.083h7Z"/><path fill="#0377BC" d="M53.666 39.083v26.834a2.333 2.333 0 0 1-1.75 2.249c.19.054.387.082.584.084h2.333a2.34 2.34 0 0 0 2.334-2.333V39.083h-3.5Z"/><path fill="#F5F5F5" d="M19.833 16.917h30.333V29.75H19.833V16.917Z"/><path fill="#CFD8DC" d="M46.666 16.917h3.5V29.75h-3.5V16.917Z"/><path fill="#1D89E4" d="M52.5 9.917v4.666a2.34 2.34 0 0 0-2.333 2.334H45.5v-7c0-.645-.522-1.167-1.167-1.167H25.667c-.645 0-1.167.522-1.167 1.167v7h-4.667a2.34 2.34 0 0 0-2.333-2.334V9.917a8.176 8.176 0 0 1 8.167-8.167h18.666A8.176 8.176 0 0 1 52.5 9.917Z"/><path fill="#0377BC" d="M21 9.917v7h3.5v-7c0-.645.522-1.167 1.167-1.167h-3.5c-.645 0-1.167.522-1.167 1.167ZM44.334 1.75h-3.5A8.176 8.176 0 0 1 49 9.917v4.666a2.34 2.34 0 0 0-2.333 2.334h3.5a2.34 2.34 0 0 1 2.333-2.334V9.917a8.176 8.176 0 0 0-8.166-8.167Z"/><path fill="#1D89E4" d="M26.834 39.083h16.333v5.834c0 .644-.523 1.166-1.167 1.166H28a1.167 1.167 0 0 1-1.166-1.166v-5.834Z"/><path fill="#0377BC" d="M39.667 39.083v5.834c0 .644-.523 1.166-1.167 1.166H42c.644 0 1.167-.522 1.167-1.166v-5.834h-3.5Z"/><path fill="#171618" d="M67.667 28.798v-4.881A8.176 8.176 0 0 0 59.5 15.75h-1.381a3.5 3.5 0 0 0-3.286-2.333h-1.166v-3.5A9.344 9.344 0 0 0 44.333.583H25.667a9.344 9.344 0 0 0-9.334 9.334v3.5h-1.166a3.5 3.5 0 0 0-3.286 2.333H10.5a8.176 8.176 0 0 0-8.167 8.167v4.881A3.5 3.5 0 0 0 0 32.083v4.667a3.5 3.5 0 0 0 2.333 3.285v18.882a8.176 8.176 0 0 0 8.167 8.166h1.381a3.5 3.5 0 0 0 3.286 2.334H17.5a3.5 3.5 0 0 0 3.285-2.334h28.43a3.5 3.5 0 0 0 3.285 2.334h2.333a3.5 3.5 0 0 0 3.286-2.334H59.5a8.176 8.176 0 0 0 8.167-8.166V40.035A3.5 3.5 0 0 0 70 36.75v-4.667a3.5 3.5 0 0 0-2.333-3.285Zm-9.334-10.715H59.5a5.84 5.84 0 0 1 5.833 5.834v4.666h-7v-10.5ZM52.5 15.75h2.333c.645 0 1.167.522 1.167 1.167v11.666h-4.667V16.917c0-.645.523-1.167 1.167-1.167ZM18.667 9.917a7.007 7.007 0 0 1 7-7h18.666a7.007 7.007 0 0 1 7 7v3.714a3.5 3.5 0 0 0-2.118 2.119h-2.548V9.917a2.333 2.333 0 0 0-2.334-2.334H25.667a2.333 2.333 0 0 0-2.334 2.334v5.833h-2.548a3.5 3.5 0 0 0-2.118-2.119V9.917ZM45.5 18.083H49v10.5H21v-10.5h24.5ZM25.667 15.75V9.917h18.666v5.833H25.667ZM14 16.917c0-.645.522-1.167 1.167-1.167H17.5c.644 0 1.167.522 1.167 1.167v11.666H14V16.917Zm-9.333 7a5.84 5.84 0 0 1 5.833-5.834h1.167v10.5h-7v-4.666Zm7 40.833H10.5a5.84 5.84 0 0 1-5.833-5.833V40.25h7v24.5Zm7 1.167c0 .644-.523 1.166-1.167 1.166h-2.333A1.167 1.167 0 0 1 14 65.917V40.25h4.667v25.667ZM49 64.75H21v-24.5h4.667v4.667A2.333 2.333 0 0 0 28 47.25h14a2.333 2.333 0 0 0 2.333-2.333V40.25H49v24.5ZM35 42.583c.644 0 1.167-.522 1.167-1.166V40.25H42v4.667H28V40.25h5.833v1.167c0 .644.523 1.166 1.167 1.166Zm21 23.334c0 .644-.522 1.166-1.167 1.166H52.5a1.167 1.167 0 0 1-1.167-1.166V40.25H56v25.667Zm9.333-7A5.84 5.84 0 0 1 59.5 64.75h-1.167v-24.5h7v18.667Zm2.334-22.167c0 .644-.523 1.167-1.167 1.167h-63a1.167 1.167 0 0 1-1.167-1.167v-4.667c0-.644.523-1.166 1.167-1.166h63c.644 0 1.167.522 1.167 1.166v4.667Z"/><path fill="#CFD8DC" d="M45.5 62.417h-21a1.167 1.167 0 1 1 0-2.334h21a1.167 1.167 0 1 1 0 2.334Z"/></g><defs><clipPath id="a"><path fill="#fff" d="M0 0h70v70H0z"/></clipPath></defs></svg>