<svg xmlns="http://www.w3.org/2000/svg" width="70" height="70" fill="none"><path fill="#F5F5F5" d="M64.166 21v16.333h-3.5v5.834a25.342 25.342 0 0 1-2.951 11.923c-3.279-4.398-6.382-.257-6.382-.257C49 50.167 45.5 53.667 45.5 53.667c0-2.392-2.182-3.699-3.559-4.282a9.314 9.314 0 0 0 2.392-6.218v-9.334c.005-7.085 5.748-12.828 12.833-12.833h7Z"/><path fill="#0377BC" d="M45.278 52.466c.142.385.217.79.222 1.2.278-.26.583-.49.911-.684a2.713 2.713 0 0 0-1.133-.516ZM50.147 53.2c.493.467.895 1.02 1.187 1.633a5.542 5.542 0 0 1 1.367-1.21 3 3 0 0 0-2.554-.423Z"/><path fill="#CFD8DC" d="M60.666 21h3.5v16.333h-3.5V21ZM57.167 43.167a25.382 25.382 0 0 1-2.039 9.985c1.068.313 1.987 1.001 2.587 1.938a25.341 25.341 0 0 0 2.952-11.923v-5.834h-3.5v5.834Z"/><path fill="#F5F5F5" d="M27.067 48.078a4.734 4.734 0 0 0-3.733 4.422c-3.5-2.333-5.834 1.167-5.834 1.167-2.8-1.12-4.527-.35-5.565.746a25.495 25.495 0 0 1-2.601-11.246v-5.834h16.333v5.834a9.282 9.282 0 0 0 1.4 4.911Z"/><path fill="#0377BC" d="M11.347 53.124c.184.436.379.866.584 1.29a4.136 4.136 0 0 1 1.393-.973 6.252 6.252 0 0 0-1.977-.317Z"/><path fill="#CFD8DC" d="M25.667 43.167v-5.834h-3.5v5.834a9.28 9.28 0 0 0 1.4 4.911 4.688 4.688 0 0 0-3.658 3.78 3.885 3.885 0 0 1 3.424.642 4.734 4.734 0 0 1 3.734-4.422 9.28 9.28 0 0 1-1.4-4.911ZM14.41 53.166a6.2 6.2 0 0 1 3.09.5 5.28 5.28 0 0 1 1.724-1.516 3.923 3.923 0 0 0-4.813 1.016Z"/><path fill="#1D89E4" d="M57.715 55.09a25.65 25.65 0 0 1-45.78-.677c1.038-1.096 2.765-1.866 5.565-.746 0 0 2.333-3.5 5.833-1.167a4.734 4.734 0 0 1 3.734-4.422 9.312 9.312 0 0 0 14.875 1.307c1.376.583 3.558 1.89 3.558 4.282 0 0 3.5-3.5 5.833 1.166 0 0 3.104-4.141 6.382.257Z"/><path fill="#0377BC" d="M52.7 53.622c.59.394 1.104.891 1.517 1.468a25.682 25.682 0 0 1-20.944 13.68c.572.039 1.146.063 1.727.063A25.667 25.667 0 0 0 57.715 55.09c-1.934-2.59-3.803-2.214-5.014-1.468Z"/><path fill="#F5F5F5" d="M25.667 16.333v16.334H9.333V19.833h-3.5V3.5h7c7.086.005 12.83 5.748 12.834 12.833Z"/><path fill="#CFD8DC" d="M12.834 3.5h-3.5c7.085.005 12.828 5.748 12.833 12.833v16.334h3.5V16.333C25.662 9.248 19.919 3.505 12.833 3.5Z"/><path fill="#9E9E9E" d="M4.667 1.167H2.334c-.645 0-1.167.522-1.167 1.166V21c0 .644.522 1.167 1.167 1.167h2.333c.644 0 1.167-.523 1.167-1.167V2.333c0-.644-.523-1.166-1.167-1.166ZM26.833 32.667H8.167c-.645 0-1.167.522-1.167 1.166v2.334c0 .644.522 1.166 1.167 1.166h18.666c.645 0 1.167-.522 1.167-1.166v-2.334c0-.644-.522-1.166-1.167-1.166ZM67.666 18.667h-2.333c-.644 0-1.166.522-1.166 1.166V38.5c0 .644.522 1.167 1.166 1.167h2.334c.644 0 1.166-.523 1.166-1.167V19.833c0-.644-.522-1.166-1.166-1.166Z"/><path fill="#171618" d="M67.667 17.5h-2.334A2.333 2.333 0 0 0 63 19.833h-5.833c-7.729.009-13.992 6.272-14 14v9.334a8.167 8.167 0 0 1-16.334 0V38.5a2.333 2.333 0 0 0 2.334-2.333v-2.334a2.333 2.333 0 0 0-2.334-2.333V16.333c-.008-7.728-6.271-13.991-14-14H7A2.333 2.333 0 0 0 4.667 0H2.333A2.333 2.333 0 0 0 0 2.333V21a2.333 2.333 0 0 0 2.333 2.333h2.334A2.333 2.333 0 0 0 7 21h1.167v10.5a2.333 2.333 0 0 0-2.334 2.333v2.334A2.333 2.333 0 0 0 8.167 38.5v4.667C8.167 57.987 20.18 70 35 70c14.82 0 26.833-12.014 26.833-26.833V38.5H63a2.333 2.333 0 0 0 2.333 2.333h2.334A2.333 2.333 0 0 0 70 38.5V19.833a2.333 2.333 0 0 0-2.333-2.333Zm-63-14V21H2.333V2.333h2.334V3.5ZM7 18.667v-14h5.833c6.44.007 11.66 5.226 11.667 11.666V31.5h-14V19.833c0-.644-.522-1.166-1.167-1.166H7Zm1.167 15.166h18.666v2.334H8.167v-2.334Zm2.333 9.334V38.5h14v4.667c.003 1.48.321 2.944.933 4.293a5.833 5.833 0 0 0-2.947 3.33 5.145 5.145 0 0 0-5.366 1.504 5.808 5.808 0 0 0-4.717.306 24.34 24.34 0 0 1-1.903-9.433Zm24.5 24.5a24.516 24.516 0 0 1-21.595-12.95 3.948 3.948 0 0 1 3.661.032c.511.203 1.095.021 1.4-.436a2.903 2.903 0 0 1 4.215-.844 1.175 1.175 0 0 0 1.819-.959 3.5 3.5 0 0 1 2.127-3.033 10.454 10.454 0 0 0 15.56 1.324 3.5 3.5 0 0 1 2.146 2.866 1.167 1.167 0 0 0 1.992.825 3.16 3.16 0 0 1 2.18-.9c.652.105 1.252.7 1.784 1.763.18.36.533.602.933.64h.105c.368 0 .714-.173.934-.466a3.447 3.447 0 0 1 2.223-1.301c.715.067 1.37.426 1.811.993A24.5 24.5 0 0 1 35 67.667Zm28-31.5h-2.333c-.645 0-1.167.522-1.167 1.166v5.834c0 3.405-.716 6.773-2.1 9.885a4.473 4.473 0 0 0-2.905-1.153 4.838 4.838 0 0 0-2.935 1.089 4.223 4.223 0 0 0-2.677-1.699 4.35 4.35 0 0 0-2.61.44 6.16 6.16 0 0 0-2.538-2.738 10.434 10.434 0 0 0 1.765-5.824v-9.334c.007-6.44 5.226-11.66 11.667-11.666H63v14Zm4.667 2.333h-2.334V19.833h2.334V38.5Z"/><path fill="#171618" d="M46.667 60.667a1.167 1.167 0 1 0 0-2.334 1.167 1.167 0 0 0 0 2.334ZM38.5 65.333a1.167 1.167 0 1 0 0-2.333 1.167 1.167 0 0 0 0 2.333ZM30.333 58.333a1.167 1.167 0 1 0 0-2.333 1.167 1.167 0 0 0 0 2.333ZM31.5 65.333a1.167 1.167 0 1 0 0-2.333 1.167 1.167 0 0 0 0 2.333ZM38.5 59.5a1.167 1.167 0 1 0 0-2.333 1.167 1.167 0 0 0 0 2.333ZM23.333 60.667a1.167 1.167 0 1 0 0-2.334 1.167 1.167 0 0 0 0 2.334Z"/></svg>