<svg xmlns="http://www.w3.org/2000/svg" width="70" height="70" fill="none"><g clip-path="url(#a)"><path fill="#F5F5F5" d="M49 31.5H21a2.333 2.333 0 0 0-2.333 2.333V59.5A2.333 2.333 0 0 0 21 61.833h28a2.333 2.333 0 0 0 2.334-2.333V33.833A2.333 2.333 0 0 0 49 31.5Z"/><path fill="#CFD8DC" d="M49 31.5h-3.5a2.34 2.34 0 0 1 2.333 2.333V59.5a2.34 2.34 0 0 1-2.333 2.333H49a2.34 2.34 0 0 0 2.333-2.333V33.833A2.34 2.34 0 0 0 49 31.5Z"/><path fill="#1D89E4" d="M18.667 33.833V59.5h-3.5A1.167 1.167 0 0 1 14 58.333V35c0-.644.522-1.167 1.167-1.167h3.5ZM56 35v23.333c0 .645-.523 1.167-1.167 1.167h-3.5V33.833h3.5c.644 0 1.167.523 1.167 1.167Z"/><path fill="#9E9E9E" d="M1.167 36.167H14v21H1.167v-21Z"/><path fill="#707070" d="M10.5 36.167H14v21h-3.5v-21Z"/><path fill="#9E9E9E" d="M56 36.167h12.833v21H56v-21Z"/><path fill="#707070" d="M65.334 36.167h3.5v21h-3.5v-21ZM28 26.833h14V31.5H28v-4.667Z"/><path fill="#9E9E9E" d="M43.166 22.167H26.834c-.644 0-1.166.522-1.166 1.166v2.334c0 .644.522 1.166 1.166 1.166h16.334c.644 0 1.166-.522 1.166-1.166v-2.334c0-.644-.522-1.166-1.166-1.166Z"/><path fill="#1D89E4" d="M68.833 10.5a2.34 2.34 0 0 1-2.333 2.333H55.79c-.674 0-1.315.29-1.762.794l-5.378 6.148a7 7 0 0 1-5.273 2.392H28a2.333 2.333 0 1 1 0-4.667h15.377c.673 0 1.315-.289 1.761-.793l5.379-6.149a7 7 0 0 1 5.273-2.391H66.5a2.34 2.34 0 0 1 2.333 2.333Z"/><path fill="#0377BC" d="m50.528 13.627-5.378 6.148a7 7 0 0 1-5.273 2.392h3.5a7 7 0 0 0 5.273-2.392l5.378-6.148a2.353 2.353 0 0 1 1.762-.794h-3.5c-.674 0-1.315.29-1.762.794ZM66.5 8.167H63a2.333 2.333 0 1 1 0 4.666h3.5a2.333 2.333 0 1 0 0-4.666Z"/><path fill="#F5F5F5" d="M39.667 14v3.5h-9.334V14c0-.644.523-1.167 1.167-1.167h7c.645 0 1.167.523 1.167 1.167Z"/><path fill="#171618" d="M54.907 14.399c.221-.253.54-.399.877-.399H66.5a3.5 3.5 0 1 0 0-7H55.784a8.167 8.167 0 0 0-6.146 2.79l-5.377 6.144a1.166 1.166 0 0 1-.879.4h-2.549V14a2.333 2.333 0 0 0-2.333-2.333h-7A2.333 2.333 0 0 0 29.167 14v2.333H28a3.5 3.5 0 0 0-2.901 5.456 2.313 2.313 0 0 0-.599 1.544v2.334A2.333 2.333 0 0 0 26.833 28v2.333H21a3.5 3.5 0 0 0-3.285 2.334h-2.548A2.333 2.333 0 0 0 12.833 35H1.167C.522 35 0 35.522 0 36.167v21c0 .644.522 1.166 1.167 1.166h11.666a2.333 2.333 0 0 0 2.334 2.334h2.548A3.5 3.5 0 0 0 21 63h28a3.5 3.5 0 0 0 3.285-2.333h2.548a2.333 2.333 0 0 0 2.334-2.334h11.666c.645 0 1.167-.522 1.167-1.166v-21c0-.645-.522-1.167-1.167-1.167H57.167a2.333 2.333 0 0 0-2.334-2.333h-2.548A3.5 3.5 0 0 0 49 30.333h-5.833V28a2.333 2.333 0 0 0 2.333-2.333v-2.334a2.285 2.285 0 0 0-.03-.283 8.166 8.166 0 0 0 4.059-2.506l5.378-6.145ZM12.833 56h-10.5V37.333h10.5V56Zm4.667 2.333h-2.333V35H17.5v23.333Zm39.667-21h10.5V56h-10.5V37.333ZM52.5 35h2.333v23.333H52.5V35Zm-21-21h7v2.333h-7V14ZM49 32.667c.644 0 1.167.522 1.167 1.166V59.5c0 .644-.523 1.167-1.167 1.167H29.167V37.333a1.167 1.167 0 0 0-2.334 0v23.334H21a1.167 1.167 0 0 1-1.167-1.167V33.833c0-.644.523-1.166 1.167-1.166h28Zm-19.833-2.334V28h11.666v2.333H29.167Zm14-4.666H26.833v-2.334h16.334v2.334ZM43.382 21H28a1.167 1.167 0 0 1 0-2.333h15.383a3.5 3.5 0 0 0 2.634-1.195l5.378-6.146a5.833 5.833 0 0 1 4.39-1.993H66.5a1.167 1.167 0 0 1 0 2.334H55.784a3.5 3.5 0 0 0-2.634 1.194l-5.378 6.146A5.833 5.833 0 0 1 43.382 21Z"/></g><defs><clipPath id="a"><path fill="#fff" d="M0 0h70v70H0z"/></clipPath></defs></svg>