<svg xmlns="http://www.w3.org/2000/svg" width="70" height="70" fill="none"><g clip-path="url(#a)"><path fill="#F5F5F5" d="M64.167 31.5a18.642 18.642 0 0 1-18.666 18.667h-21c-10.31 0-18.667-8.358-18.667-18.667h58.333Z"/><path fill="#CFD8DC" d="M60.667 31.5a18.642 18.642 0 0 1-18.666 18.667h3.5A18.642 18.642 0 0 0 64.166 31.5h-3.5ZM66.5 29.167a2.34 2.34 0 0 1-2.333 2.333H5.834A2.35 2.35 0 0 1 3.5 29.167a2.34 2.34 0 0 1 2.334-2.334h58.333a2.35 2.35 0 0 1 2.334 2.334Z"/><path fill="#9E9E9E" d="M40.834 50.167v4.666a2.34 2.34 0 0 1-2.334 2.334h-7a2.34 2.34 0 0 1-2.333-2.334v-4.666h11.667Z"/><path fill="#707070" d="M37.333 50.167v4.666A2.34 2.34 0 0 1 35 57.167h3.5a2.34 2.34 0 0 0 2.333-2.334v-4.666h-3.5Z"/><path fill="#607D8B" d="M38.5 57.167v8.166a3.5 3.5 0 1 1-7 0v-8.166h7Z"/><path fill="#37474F" d="M35 57.167v8.166c0 .928-.37 1.819-1.027 2.474-.218.21-.462.392-.726.541a3.492 3.492 0 0 0 5.253-3.015v-8.166H35Z"/><path fill="#1D89E4" d="M26.833 22.167v4.666H17.5v-4.666a2.34 2.34 0 0 1 2.333-2.334H24.5a2.34 2.34 0 0 1 2.333 2.334Z"/><path fill="#0377BC" d="M24.5 19.833H21a2.34 2.34 0 0 1 2.334 2.334v4.666h3.5v-4.666a2.34 2.34 0 0 0-2.334-2.334Z"/><path fill="#F44335" d="M52.5 22.167v4.666h-9.333v-4.666a2.34 2.34 0 0 1 2.333-2.334h4.667a2.34 2.34 0 0 1 2.333 2.334Z"/><path fill="#C81E1E" d="M50.167 19.833h-3.5A2.34 2.34 0 0 1 49 22.167v4.666h3.5v-4.666a2.34 2.34 0 0 0-2.333-2.334Z"/><path fill="#9E9E9E" d="M37.334 9.333v17.5h-4.667V9.473a3.59 3.59 0 0 0-2.8-3.57 3.5 3.5 0 0 0-4.2 3.43V10.5c0 .644-.522 1.167-1.167 1.167h-2.333A1.167 1.167 0 0 1 21 10.5v-.887a8.356 8.356 0 0 1 7.094-8.376 8.175 8.175 0 0 1 9.24 8.096Z"/><path fill="#171618" d="M24.5 18.667h-4.666a3.5 3.5 0 0 0-3.5 3.5v3.5h-10.5a3.49 3.49 0 0 0-1.118 6.8c.519 10.554 9.218 18.85 19.784 18.866H28v3.5a3.5 3.5 0 0 0 2.334 3.286v7.214a4.667 4.667 0 0 0 9.333 0V58.12A3.5 3.5 0 0 0 42 54.833v-3.5h3.5c10.567-.017 19.266-8.312 19.785-18.866a3.49 3.49 0 0 0-1.118-6.8h-10.5v-3.5a3.5 3.5 0 0 0-3.5-3.5H45.5a3.5 3.5 0 0 0-3.5 3.5v3.5h-3.5V9.333A9.344 9.344 0 0 0 27.943.078a9.501 9.501 0 0 0-8.11 9.54v.882a2.333 2.333 0 0 0 2.334 2.333H24.5a2.333 2.333 0 0 0 2.334-2.333V9.333a2.334 2.334 0 0 1 2.808-2.286A2.44 2.44 0 0 1 31.5 9.47v16.196H28v-3.5a3.5 3.5 0 0 0-3.5-3.5Zm-5.833 3.5c0-.645.522-1.167 1.167-1.167H24.5c.645 0 1.167.522 1.167 1.167v3.5h-7v-3.5Zm18.667 43.166a2.333 2.333 0 1 1-4.667 0v-7h4.667v7Zm2.333-10.5c0 .645-.522 1.167-1.167 1.167h-7a1.167 1.167 0 0 1-1.166-1.167v-3.5h9.333v3.5ZM45.5 49h-21c-9.207-.012-16.835-7.147-17.461-16.333h55.923C62.336 41.853 54.708 48.988 45.5 49Zm-1.166-26.833c0-.645.522-1.167 1.166-1.167h4.667c.644 0 1.167.522 1.167 1.167v3.5h-7v-3.5ZM30.088 4.757A4.667 4.667 0 0 0 24.5 9.333V10.5h-2.333v-.882a7.164 7.164 0 0 1 6.074-7.225 7.01 7.01 0 0 1 7.926 6.94v16.334h-2.333V9.47a4.744 4.744 0 0 0-3.746-4.714ZM32.668 28h31.5a1.167 1.167 0 0 1 0 2.333H5.833a1.167 1.167 0 0 1 0-2.333h26.833Z"/></g><defs><clipPath id="a"><path fill="#fff" d="M0 0h70v70H0z"/></clipPath></defs></svg>