<svg xmlns="http://www.w3.org/2000/svg" width="70" height="70" fill="none"><g clip-path="url(#a)"><path fill="#9E9E9E" d="M29.166 68.833h-28l1.692-3.371a2.333 2.333 0 0 1 2.089-1.295h20.44c.885 0 1.694.502 2.088 1.295l1.691 3.371Z"/><path fill="#F5F5F5" d="M4.667 19.833h21v44.334h-21V19.833Z"/><path fill="#CFD8DC" d="M22.167 19.833h3.5v44.334h-3.5V19.833Z"/><path fill="#9E9E9E" d="M58.334 4.48a3.5 3.5 0 0 1-3.5 3.687h-24.5a4.667 4.667 0 0 0-4.667 4.666v7h-21V8.167a7 7 0 0 1 7-7h42.968a3.65 3.65 0 0 1 3.699 3.313Z"/><path fill="#707070" d="M54.635 1.167h-3.5a3.65 3.65 0 0 1 3.699 3.313 3.5 3.5 0 0 1-3.5 3.687h3.5a3.5 3.5 0 0 0 3.5-3.687 3.65 3.65 0 0 0-3.699-3.313ZM22.167 12.833v7h3.5v-7a4.667 4.667 0 0 1 4.667-4.666h-3.5a4.667 4.667 0 0 0-4.667 4.666Z"/><path fill="#9E9E9E" d="M68.833 30.333v3.5c0 .645-.522 1.167-1.166 1.167h-42V23.333h36.166a7 7 0 0 1 7 7Z"/><path fill="#707070" d="M61.833 23.333h-3.5a7 7 0 0 1 7 7v3.5c0 .645-.522 1.167-1.167 1.167h3.5c.645 0 1.167-.522 1.167-1.167v-3.5a7 7 0 0 0-7-7Z"/><path fill="#37474F" d="M67.667 35v3.5c0 .644-.522 1.167-1.167 1.167H54.834a1.167 1.167 0 0 1-1.167-1.167V35h14Z"/><path fill="#1D89E4" d="M68.833 60.667a8.167 8.167 0 1 1-16.333 0c0-7 8.167-15.167 8.167-15.167s8.166 8.167 8.166 15.167Z"/><path fill="#0377BC" d="M60.666 45.5s-.732.736-1.75 1.939c2.4 2.835 6.417 8.314 6.417 13.228a8.167 8.167 0 0 1-6.416 7.974 8.155 8.155 0 0 0 9.916-7.974c0-7-8.166-15.167-8.166-15.167Z"/><path fill="#171618" d="M61.833 22.167h-35v-9.334a3.5 3.5 0 0 1 3.5-3.5h24.5a4.686 4.686 0 0 0 3.384-1.453A4.633 4.633 0 0 0 59.5 4.417 4.77 4.77 0 0 0 54.635 0H11.667A8.177 8.177 0 0 0 3.5 8.167v55.142c-.733.331-1.33.905-1.688 1.625l-1.69 3.378A1.167 1.167 0 0 0 1.168 70h28a1.167 1.167 0 0 0 1.044-1.688l-1.69-3.378a3.488 3.488 0 0 0-1.688-1.625V36.167H52.5V38.5a2.333 2.333 0 0 0 2.333 2.333H66.5a2.333 2.333 0 0 0 2.333-2.333v-2.658A2.325 2.325 0 0 0 70 33.833v-3.5a8.177 8.177 0 0 0-8.167-8.166ZM5.833 21H24.5v42H5.833V21ZM27.28 67.667H3.054l.845-1.689c.196-.396.6-.646 1.043-.645h20.45c.442-.001.846.249 1.042.645l.845 1.689ZM24.5 12.833v5.834H5.833v-10.5a5.84 5.84 0 0 1 5.834-5.834h42.968a2.472 2.472 0 0 1 2.532 2.207A2.333 2.333 0 0 1 54.833 7h-24.5a5.84 5.84 0 0 0-5.833 5.833Zm42 25.667H54.833v-2.333H66.5V38.5Zm1.167-4.667H26.833V24.5h35a5.84 5.84 0 0 1 5.834 5.833v3.5Z"/><path fill="#171618" d="M59.842 44.675c-.342.348-8.508 8.594-8.508 15.992a9.333 9.333 0 0 0 18.667 0c0-7.398-8.162-15.644-8.51-15.992a1.167 1.167 0 0 0-1.649 0Zm.825 22.992a7.007 7.007 0 0 1-7-7c0-5.16 4.989-11.224 7-13.46 2.011 2.236 7 8.3 7 13.46a7.007 7.007 0 0 1-7 7Z"/><path fill="#F5F5F5" d="M9.333 28a1.167 1.167 0 0 1-1.167-1.167V24.5a1.167 1.167 0 0 1 2.334 0v2.333c0 .645-.523 1.167-1.167 1.167ZM9.333 50.167A1.167 1.167 0 0 1 8.166 49V31.5a1.167 1.167 0 0 1 2.334 0V49c0 .644-.523 1.167-1.167 1.167Z"/></g><defs><clipPath id="a"><path fill="#fff" d="M0 0h70v70H0z"/></clipPath></defs></svg>