<svg xmlns="http://www.w3.org/2000/svg" width="70" height="70" fill="none"><g clip-path="url(#a)"><path fill="#F5F5F5" d="M63.584 38.5v4.667c0 7.732-6.269 14-14 14H40.25a4.667 4.667 0 0 0-4.666 4.666v5.834c0 .644-.523 1.166-1.167 1.166H15.75a1.167 1.167 0 0 1-1.166-1.166V38.5h49Z"/><path fill="#CFD8DC" d="M32.084 61.833v5.834c0 .644-.523 1.166-1.167 1.166h3.5c.644 0 1.167-.522 1.167-1.166v-5.834a4.667 4.667 0 0 1 4.666-4.666h-3.5a4.667 4.667 0 0 0-4.666 4.666ZM60.084 38.5v4.667c0 7.732-6.269 14-14 14h3.5c7.731 0 14-6.268 14-14V38.5h-3.5Z"/><path fill="#1D89E4" d="M26.25 5.833V38.5h-14a7 7 0 0 1-7-7V5.833h21Z"/><path fill="#0377BC" d="M22.75 5.833h3.5V38.5h-3.5V5.833Z"/><path fill="#CFD8DC" d="M29.75 3.5a2.34 2.34 0 0 1-2.333 2.333H4.083a2.28 2.28 0 0 1-1.645-.688A2.28 2.28 0 0 1 1.75 3.5a2.34 2.34 0 0 1 2.333-2.333h23.334a2.28 2.28 0 0 1 1.645.688A2.28 2.28 0 0 1 29.75 3.5Z"/><path fill="#9E9E9E" d="M29.062 1.855a2.28 2.28 0 0 0-1.645-.688h-3.5a2.281 2.281 0 0 1 1.645.688A2.28 2.28 0 0 1 26.25 3.5a2.34 2.34 0 0 1-2.333 2.333h3.5A2.34 2.34 0 0 0 29.75 3.5a2.28 2.28 0 0 0-.688-1.645Z"/><path fill="#CFD8DC" d="M68.25 36.167a2.34 2.34 0 0 1-2.333 2.333H26.25v-4.667h39.667a2.35 2.35 0 0 1 2.333 2.334Z"/><path fill="#9E9E9E" d="M67.562 34.522a2.281 2.281 0 0 0-1.645-.689h-3.5a2.35 2.35 0 0 1 2.333 2.334 2.34 2.34 0 0 1-2.333 2.333h3.5a2.34 2.34 0 0 0 2.333-2.333 2.28 2.28 0 0 0-.688-1.645Z"/><path fill="#171618" d="M65.917 32.667h-38.5V7a3.5 3.5 0 1 0 0-7H4.083a3.5 3.5 0 1 0 0 7v24.5a8.176 8.176 0 0 0 8.167 8.167h1.167v28A2.333 2.333 0 0 0 15.75 70h18.667a2.333 2.333 0 0 0 2.333-2.333v-5.834a3.5 3.5 0 0 1 3.5-3.5h9.334c8.372-.01 15.156-6.794 15.166-15.166v-3.5h1.167a3.5 3.5 0 1 0 0-7Zm-61.834-28a1.167 1.167 0 1 1 0-2.334h23.334a1.167 1.167 0 1 1 0 2.334H4.083Zm10.5 32.666H12.25A5.84 5.84 0 0 1 6.417 31.5V7h18.666v30.333h-10.5Zm47.834 5.834C62.408 50.25 56.667 55.992 49.583 56H40.25a5.84 5.84 0 0 0-5.833 5.833v5.834H15.75v-28h46.667v3.5Zm3.5-5.834h-38.5V35h38.5a1.167 1.167 0 1 1 0 2.333Z"/><path fill="#F5F5F5" d="M9.917 14a1.167 1.167 0 0 1-1.167-1.167V10.5a1.167 1.167 0 0 1 2.333 0v2.333c0 .645-.522 1.167-1.166 1.167ZM9.917 30.333a1.167 1.167 0 0 1-1.167-1.166V17.5a1.167 1.167 0 0 1 2.333 0v11.667c0 .644-.522 1.166-1.166 1.166Z"/></g><defs><clipPath id="a"><path fill="#fff" d="M0 0h70v70H0z"/></clipPath></defs></svg>