<svg xmlns="http://www.w3.org/2000/svg" width="70" height="70" fill="none"><g clip-path="url(#a)"><path fill="#1D89E4" d="M56 52.5v7a2.34 2.34 0 0 1-2.333 2.333H16.334A2.34 2.34 0 0 1 14 59.5v-7h42Z"/><path fill="#0377BC" d="M52.5 52.5v7a2.34 2.34 0 0 1-2.334 2.333h3.5A2.34 2.34 0 0 0 56 59.5v-7h-3.5Z"/><path fill="#F5F5F5" d="M56 8.167V52.5H14V8.167a2.34 2.34 0 0 1 2.334-2.334h37.333a2.34 2.34 0 0 1 2.334 2.334Z"/><path fill="#CFD8DC" d="M53.666 5.833h-3.5A2.34 2.34 0 0 1 52.5 8.167V52.5H56V8.167a2.34 2.34 0 0 0-2.334-2.334Z"/><path fill="#7F8E94" d="M37.589 1.167h-5.178c-.535 0-1.001.364-1.131.883l-.947 3.783h9.334L38.72 2.05a1.167 1.167 0 0 0-1.132-.883ZM21 61.833h4.667v5.834c0 .644-.523 1.166-1.167 1.166h-2.333A1.167 1.167 0 0 1 21 67.667v-5.834ZM44.334 61.833H49v5.834c0 .644-.522 1.166-1.166 1.166H45.5a1.167 1.167 0 0 1-1.166-1.166v-5.834Z"/><path fill="#171618" d="M16.334 63h3.5v4.667A2.333 2.333 0 0 0 22.166 70H24.5a2.333 2.333 0 0 0 2.334-2.333V63h16.333v4.667A2.333 2.333 0 0 0 45.5 70h2.334a2.333 2.333 0 0 0 2.333-2.333V63h3.5a3.5 3.5 0 0 0 3.5-3.5V8.167a3.5 3.5 0 0 0-3.5-3.5h-13.09l-.725-2.9A2.333 2.333 0 0 0 37.59 0h-5.178c-1.07 0-2.003.729-2.263 1.768l-.724 2.899h-13.09a3.5 3.5 0 0 0-3.5 3.5V59.5a3.5 3.5 0 0 0 3.5 3.5Zm5.833 4.667V63H24.5v4.667h-2.333Zm23.333 0V63h2.334v4.667H45.5ZM32.411 2.333h5.178l.583 2.334h-6.344l.583-2.334ZM15.167 53.667H42a1.167 1.167 0 0 0 0-2.334H15.167V8.167c0-.645.522-1.167 1.167-1.167h37.333c.644 0 1.166.522 1.166 1.167v43.166h-8.166a1.167 1.167 0 0 0 0 2.334h8.166V59.5c0 .644-.522 1.167-1.166 1.167H16.333a1.167 1.167 0 0 1-1.166-1.167v-5.833Z"/><path fill="#171618" d="M18.667 58.333a1.167 1.167 0 1 0 0-2.333 1.167 1.167 0 0 0 0 2.333ZM24.5 58.333h9.334a1.167 1.167 0 1 0 0-2.333H24.5a1.167 1.167 0 1 0 0 2.333ZM18.667 9.333c-.645 0-1.167.523-1.167 1.167v1.167a1.167 1.167 0 0 0 2.333 0V10.5c0-.644-.522-1.167-1.166-1.167ZM18.667 15.167c-.645 0-1.167.522-1.167 1.166v17.5a1.167 1.167 0 0 0 2.333 0v-17.5c0-.644-.522-1.166-1.166-1.166Z"/></g><defs><clipPath id="a"><path fill="#fff" d="M0 0h70v70H0z"/></clipPath></defs></svg>